# xmcd
#
# Track frame offsets:
#	183
#	12258
#	25245
#	38320
#	50228
#	64630
#	77435
#	91910
#	104353
#	115470
#	130290
#	142588
#	160318
#	171760
#	180723
#	192785
#	207923
#	220675
#	232105
#	244678
#
# Disc length: 3378 seconds
#
# Revision: 0
# Processed by: cddbd v1.5.2PL0 Copyright (c) Steve Scherf et al.
# Submitted via: EasyCDDAExtractor 16.0.9.1
#
DISCID=070d3014
DTITLE=Ike and Tina Turner - N-015 Ike and Tina Turner Proud Mary
DYEAR=1988
DGENRE=Pop
TTITLE0=Proud Mary
TTITLE1=I Know ( You Don't Want Me No More)
TTITLE2=Shame, Shame, Shame
TTITLE3=Something's Got A Hold On Me
TTITLE4=Baby Get It On
TTITLE5=Get Back
TTITLE6=Tweedlee Dee
TTITLE7=Stagger Lee
TTITLE8=It's Gonna Work Out Fine
TTITLE9=Drift Away
TTITLE10=Louie Louie
TTITLE11=Only Women Bleed
TTITLE12=Ain't That A Shame
TTITLE13=Feel It (a.k.a. Don't Fight It, Feel It)
TTITLE14=Knock On Wood
TTITLE15=What You See
TTITLE16=Shake
TTITLE17=Down In The Valley
TTITLE18=Ya Ya
TTITLE19=The Loco-Motion
EXTD=YEAR: 1988\n
EXTT0=
EXTT1=
EXTT2=
EXTT3=
EXTT4=
EXTT5=
EXTT6=
EXTT7=
EXTT8=
EXTT9=
EXTT10=
EXTT11=
EXTT12=
EXTT13=
EXTT14=
EXTT15=
EXTT16=
EXTT17=
EXTT18=
EXTT19=
PLAYORDER=
